<svg width="81" height="18" viewBox="0 0 81 18" fill="none" xmlns="http://www.w3.org/2000/svg">
<path d="M4.83781 17.7264L0.128324 17.7512C0.0427746 17.7512 0 17.7098 0 17.6269L0.0513295 0.126312C0.0513295 0.059975 0.0855493 0.0268065 0.153989 0.0268065L5.06879 0.00193006C6.04405 -0.0229463 6.92521 0.192649 7.71226 0.648716C8.50787 1.10478 9.14094 1.72255 9.61146 2.50201C10.0905 3.27318 10.3301 4.12726 10.3301 5.06428V12.3779C10.3301 13.3564 10.0863 14.252 9.59863 15.0646C9.10244 15.8689 8.44371 16.5116 7.62244 16.9925C6.80117 17.4652 5.87296 17.7098 4.83781 17.7264ZM5.06879 3.04929L3.23376 3.07416L3.2081 14.6168H4.83781C5.48798 14.6168 6.0355 14.3971 6.48036 13.9576C6.92521 13.5181 7.14764 12.9916 7.14764 12.3779V5.0394C7.14764 4.50041 6.94232 4.03191 6.53168 3.63388C6.12105 3.22757 5.63342 3.0327 5.06879 3.04929Z" fill="white"/>
<path d="M25.1213 18C24.1973 18 23.3419 17.7678 22.5548 17.3035C21.7678 16.8391 21.139 16.2172 20.6684 15.4377C20.2065 14.65 19.9755 13.7917 19.9755 12.863L20.0268 0.126312C20.0268 0.059975 20.061 0.0268065 20.1295 0.0268065H23.0809C23.1494 0.0268065 23.1836 0.059975 23.1836 0.126312V12.863C23.1836 13.4352 23.3718 13.9244 23.7482 14.3307C24.1246 14.7288 24.5823 14.9278 25.1213 14.9278C25.6859 14.9278 26.1564 14.7288 26.5328 14.3307C26.9093 13.9244 27.0975 13.4352 27.0975 12.863V0.126312C27.0975 0.059975 27.1317 0.0268065 27.2001 0.0268065H30.1516C30.22 0.0268065 30.2542 0.059975 30.2542 0.126312L30.3056 12.863C30.3056 13.8 30.0746 14.6624 29.6126 15.4502C29.1421 16.2296 28.5176 16.8515 27.7391 17.3159C26.9606 17.772 26.088 18 25.1213 18Z" fill="white"/>
<path d="M41.7556 17.7512H38.7784C38.71 17.7512 38.6758 17.7098 38.6758 17.6269L38.7271 0.126312C38.7271 0.059975 38.7613 0.0268065 38.8298 0.0268065H44.1424C45.092 0.0268065 45.9646 0.250694 46.7602 0.698469C47.5558 1.14624 48.1889 1.74742 48.6594 2.50201C49.1385 3.25659 49.378 4.11068 49.378 5.06428C49.378 5.68619 49.2796 6.25005 49.0829 6.75587C48.8861 7.26169 48.6551 7.68874 48.3899 8.037C48.1333 8.38527 47.898 8.64233 47.6841 8.80817C48.6337 9.8281 49.1085 11.0263 49.1085 12.4028L49.1342 17.6269C49.1342 17.7098 49.0914 17.7512 49.0059 17.7512H46.0287C45.9603 17.7512 45.9261 17.7264 45.9261 17.6766V12.4028C45.9261 11.7892 45.7037 11.2585 45.2588 10.8107C44.8139 10.3629 44.2664 10.1391 43.6163 10.1391H41.8839L41.8582 17.6269C41.8582 17.7098 41.824 17.7512 41.7556 17.7512ZM44.1424 3.07416H41.8839V7.07926H44.1424C44.6813 7.07926 45.1604 6.8844 45.5796 6.49467C46.0074 6.10494 46.2212 5.62814 46.2212 5.06428C46.2212 4.52529 46.0159 4.06093 45.6053 3.6712C45.1946 3.27318 44.707 3.07416 44.1424 3.07416Z" fill="white"/>
<path d="M61.3087 17.7512H58.3316C58.2461 17.7512 58.2033 17.7098 58.2033 17.6269L58.2289 0.126312C58.2289 0.059975 58.2632 0.0268065 58.3316 0.0268065H61.2831C61.3515 0.0268065 61.3857 0.059975 61.3857 0.126312L61.4114 17.6269C61.4114 17.7098 61.3772 17.7512 61.3087 17.7512Z" fill="white"/>
<path d="M73.955 17.8313H71.3244C71.1875 17.8313 71.1191 17.7733 71.1191 17.6572L71.0934 0.305883C71.0934 0.173208 71.1618 0.106871 71.2987 0.106871H73.6727L78.1127 10.1445L77.9844 0.305883C77.9844 0.173208 78.0614 0.106871 78.2154 0.106871H80.8203C80.923 0.106871 80.9743 0.173208 80.9743 0.305883L81 17.682C81 17.7815 80.9572 17.8313 80.8717 17.8313H78.5618L74.0063 8.4529L74.1988 17.6323C74.1988 17.765 74.1176 17.8313 73.955 17.8313Z" fill="white"/>
</svg>
